<svg xmlns="http://www.w3.org/2000/svg" viewBox="0 0 25 25">
  <path d="M1 1h5v5h-5zM7 1h1v1h-1zM9 1h1v1h-1zM11 1h1v1h-1zM13 1h1v1h-1zM15 1h1v1h-1zM17 1h1v1h-1zM19 1h5v5h-5zM1 7h1v1h-1zM5 7h1v1h-1zM7 7h1v1h-1zM9 7h1v1h-1zM11 7h1v1h-1zM13 7h1v1h-1zM17 7h1v1h-1zM19 7h1v1h-1zM23 7h1v1h-1zM1 9h1v1h-1zM3 9h1v1h-1zM5 9h1v1h-1zM7 9h1v1h-1zM9 9h1v1h-1zM11 9h1v1h-1zM13 9h1v1h-1zM15 9h1v1h-1zM19 9h1v1h-1zM21 9h1v1h-1zM23 9h1v1h-1zM1 11h1v1h-1zM3 11h1v1h-1zM7 11h1v1h-1zM11 11h1v1h-1zM15 11h1v1h-1zM17 11h1v1h-1zM19 11h1v1h-1zM21 11h1v1h-1zM1 13h1v1h-1zM3 13h1v1h-1zM5 13h1v1h-1zM7 13h1v1h-1zM9 13h1v1h-1zM11 13h1v1h-1zM15 13h1v1h-1zM17 13h1v1h-1zM21 13h1v1h-1zM23 13h1v1h-1zM1 15h1v1h-1zM3 15h1v1h-1zM5 15h1v1h-1zM7 15h1v1h-1zM9 15h1v1h-1zM11 15h1v1h-1zM13 15h1v1h-1zM15 15h1v1h-1zM17 15h1v1h-1zM19 15h1v1h-1zM23 15h1v1h-1zM1 17h1v1h-1zM5 17h1v1h-1zM7 17h1v1h-1zM9 17h1v1h-1zM11 17h1v1h-1zM13 17h1v1h-1zM15 17h1v1h-1zM17 17h1v1h-1zM19 17h1v1h-1zM21 17h1v1h-1zM23 17h1v1h-1zM1 19h5v5h-5zM9 19h1v1h-1zM11 19h1v1h-1zM13 19h1v1h-1zM15 19h1v1h-1zM17 19h1v1h-1zM19 19h5v5h-5zM7 21h1v1h-1zM9 21h1v1h-1zM11 21h1v1h-1zM13 21h1v1h-1zM17 21h1v1h-1zM1 23h1v1h-1zM3 23h1v1h-1zM7 23h1v1h-1zM9 23h1v1h-1zM11 23h1v1h-1zM13 23h1v1h-1zM15 23h1v1h-1zM19 23h1v1h-1z"/>
</svg>